<!-- Generated by IcoMoon.io -->
<svg version="1.1" xmlns="http://www.w3.org/2000/svg" width="32" height="32" viewBox="0 0 32 32">
<title>Clock-Back</title>
<path style="fill:#4a90e2;" d="M3.511 19c-0.367 0-0.667-0.3-0.667-0.667 0-9.191 7.476-16.667 16.667-16.667 0.367 0 0.667 0.3 0.667 0.667s-0.3 0.667-0.667 0.667c-8.453 0-15.333 6.879-15.333 15.333 0 0.367-0.299 0.667-0.667 0.667zM3.512 19.333c-0.025 0-0.049-0.001-0.075-0.004-0.232-0.028-0.431-0.169-0.529-0.38l-2.356-5.023c-0.156-0.333-0.013-0.729 0.32-0.885 0.331-0.156 0.729-0.013 0.888 0.32l1.893 4.035 2.705-3.475c0.224-0.289 0.641-0.344 0.933-0.115 0.293 0.227 0.345 0.641 0.116 0.935l-3.372 4.333c-0.125 0.165-0.319 0.259-0.524 0.259zM19.511 7.667c5.891 0 10.667 4.776 10.667 10.667s-4.776 10.667-10.667 10.667c-5.889 0-10.667-4.776-10.667-10.667s4.776-10.667 10.667-10.667zM19.511 6.333c-6.616 0-12 5.383-12 12s5.383 12 12 12c6.617 0 12-5.383 12-12s-5.383-12-12-12v0zM19.511 19c-0.169 0-0.341-0.065-0.472-0.195-0.26-0.257-0.26-0.683 0-0.943l5.333-5.333c0.257-0.257 0.683-0.257 0.943 0 0.257 0.26 0.257 0.685 0 0.943l-5.333 5.333c-0.129 0.129-0.299 0.195-0.471 0.195zM19.511 19c-0.169 0-0.341-0.065-0.472-0.195l-4-4c-0.26-0.257-0.26-0.683 0-0.943 0.257-0.257 0.683-0.257 0.943 0l4 4c0.257 0.26 0.257 0.685 0 0.943-0.129 0.129-0.299 0.195-0.471 0.195z"></path>
</svg>
