<!-- Generated by IcoMoon.io -->
<svg version="1.1" xmlns="http://www.w3.org/2000/svg" width="32" height="32" viewBox="0 0 32 32">
<title>Code-Window</title>
<path style="fill:#666666;" d="M31.333 29.333h-30.667c-0.368 0-0.667-0.3-0.667-0.667v-25.333c0-0.367 0.299-0.667 0.667-0.667h30.667c0.367 0 0.667 0.3 0.667 0.667v25.333c0 0.367-0.3 0.667-0.667 0.667zM1.333 28h29.333v-24h-29.333v24zM30.667 9.333h-29.333c-0.368 0-0.667-0.3-0.667-0.667s0.299-0.667 0.667-0.667h29.333c0.367 0 0.667 0.3 0.667 0.667s-0.3 0.667-0.667 0.667zM10.723 25.945c-0.221 0-0.439-0.109-0.565-0.309l-4.056-6.445c-0.145-0.235-0.135-0.528 0.028-0.751l4.056-5.5c0.219-0.3 0.635-0.361 0.932-0.137 0.296 0.219 0.36 0.636 0.14 0.932l-3.785 5.135 3.813 6.060c0.196 0.311 0.103 0.724-0.209 0.917-0.108 0.068-0.232 0.099-0.353 0.099zM21.333 25.945c-0.121 0-0.245-0.031-0.355-0.103-0.312-0.195-0.407-0.607-0.209-0.917l3.813-6.060-3.787-5.136c-0.219-0.297-0.156-0.713 0.14-0.932 0.296-0.22 0.713-0.156 0.932 0.14l4.055 5.5c0.164 0.221 0.175 0.519 0.028 0.751l-4.056 6.445c-0.124 0.203-0.34 0.312-0.561 0.312zM13.333 24.724c-0.111 0-0.221-0.028-0.325-0.084-0.321-0.18-0.436-0.585-0.256-0.912l5.277-9.445c0.18-0.323 0.584-0.439 0.909-0.252 0.32 0.18 0.435 0.584 0.255 0.908l-5.277 9.445c-0.123 0.217-0.349 0.34-0.583 0.34zM4 6c0 0.368-0.299 0.667-0.667 0.667s-0.667-0.299-0.667-0.667c0-0.368 0.299-0.667 0.667-0.667s0.667 0.299 0.667 0.667zM6.667 6c0 0.368-0.299 0.667-0.667 0.667s-0.667-0.299-0.667-0.667c0-0.368 0.299-0.667 0.667-0.667s0.667 0.299 0.667 0.667zM9.333 6c0 0.368-0.299 0.667-0.667 0.667s-0.667-0.299-0.667-0.667c0-0.368 0.299-0.667 0.667-0.667s0.667 0.299 0.667 0.667z"></path>
</svg>
