<!-- Generated by IcoMoon.io -->
<svg version="1.1" xmlns="http://www.w3.org/2000/svg" width="32" height="32" viewBox="0 0 32 32">
<title>CPU</title>
<path style="fill:#666666;" d="M26.667 27.333h-21.333c-0.367 0-0.667-0.3-0.667-0.667v-21.333c0-0.368 0.3-0.667 0.667-0.667h21.333c0.367 0 0.667 0.299 0.667 0.667v21.333c0 0.367-0.3 0.667-0.667 0.667zM6 26h20v-20h-20v20zM22.667 23.333h-13.333c-0.367 0-0.667-0.3-0.667-0.667v-13.333c0-0.368 0.3-0.667 0.667-0.667h13.333c0.367 0 0.667 0.299 0.667 0.667v13.333c0 0.367-0.3 0.667-0.667 0.667zM10 22h12v-12h-12v12zM6.667 5.333c-0.367 0-0.667-0.299-0.667-0.667v-2.667c0-0.368 0.3-0.667 0.667-0.667s0.667 0.299 0.667 0.667v2.667c0 0.368-0.3 0.667-0.667 0.667zM9.333 5.333c-0.367 0-0.667-0.299-0.667-0.667v-2.667c0-0.368 0.3-0.667 0.667-0.667s0.667 0.299 0.667 0.667v2.667c0 0.368-0.3 0.667-0.667 0.667zM12 5.333c-0.367 0-0.667-0.299-0.667-0.667v-2.667c0-0.368 0.3-0.667 0.667-0.667s0.667 0.299 0.667 0.667v2.667c0 0.368-0.3 0.667-0.667 0.667zM14.667 5.333c-0.367 0-0.667-0.299-0.667-0.667v-2.667c0-0.368 0.3-0.667 0.667-0.667s0.667 0.299 0.667 0.667v2.667c0 0.368-0.3 0.667-0.667 0.667zM17.333 5.333c-0.367 0-0.667-0.299-0.667-0.667v-2.667c0-0.368 0.3-0.667 0.667-0.667s0.667 0.299 0.667 0.667v2.667c0 0.368-0.3 0.667-0.667 0.667zM20 5.333c-0.367 0-0.667-0.299-0.667-0.667v-2.667c0-0.368 0.3-0.667 0.667-0.667s0.667 0.299 0.667 0.667v2.667c0 0.368-0.3 0.667-0.667 0.667zM22.667 5.333c-0.367 0-0.667-0.299-0.667-0.667v-2.667c0-0.368 0.3-0.667 0.667-0.667s0.667 0.299 0.667 0.667v2.667c0 0.368-0.3 0.667-0.667 0.667zM25.333 5.333c-0.367 0-0.667-0.299-0.667-0.667v-2.667c0-0.368 0.3-0.667 0.667-0.667s0.667 0.299 0.667 0.667v2.667c0 0.368-0.3 0.667-0.667 0.667zM6.667 30.667c-0.367 0-0.667-0.3-0.667-0.667v-2.667c0-0.367 0.3-0.667 0.667-0.667s0.667 0.3 0.667 0.667v2.667c0 0.367-0.3 0.667-0.667 0.667zM9.333 30.667c-0.367 0-0.667-0.3-0.667-0.667v-2.667c0-0.367 0.3-0.667 0.667-0.667s0.667 0.3 0.667 0.667v2.667c0 0.367-0.3 0.667-0.667 0.667zM12 30.667c-0.367 0-0.667-0.3-0.667-0.667v-2.667c0-0.367 0.3-0.667 0.667-0.667s0.667 0.3 0.667 0.667v2.667c0 0.367-0.3 0.667-0.667 0.667zM14.667 30.667c-0.367 0-0.667-0.3-0.667-0.667v-2.667c0-0.367 0.3-0.667 0.667-0.667s0.667 0.3 0.667 0.667v2.667c0 0.367-0.3 0.667-0.667 0.667zM17.333 30.667c-0.367 0-0.667-0.3-0.667-0.667v-2.667c0-0.367 0.3-0.667 0.667-0.667s0.667 0.3 0.667 0.667v2.667c0 0.367-0.3 0.667-0.667 0.667zM20 30.667c-0.367 0-0.667-0.3-0.667-0.667v-2.667c0-0.367 0.3-0.667 0.667-0.667s0.667 0.3 0.667 0.667v2.667c0 0.367-0.3 0.667-0.667 0.667zM22.667 30.667c-0.367 0-0.667-0.3-0.667-0.667v-2.667c0-0.367 0.3-0.667 0.667-0.667s0.667 0.3 0.667 0.667v2.667c0 0.367-0.3 0.667-0.667 0.667zM25.333 30.667c-0.367 0-0.667-0.3-0.667-0.667v-2.667c0-0.367 0.3-0.667 0.667-0.667s0.667 0.3 0.667 0.667v2.667c0 0.367-0.3 0.667-0.667 0.667zM4.667 26h-2.667c-0.367 0-0.667-0.3-0.667-0.667s0.3-0.667 0.667-0.667h2.667c0.367 0 0.667 0.3 0.667 0.667s-0.3 0.667-0.667 0.667zM4.667 23.333h-2.667c-0.367 0-0.667-0.3-0.667-0.667s0.3-0.667 0.667-0.667h2.667c0.367 0 0.667 0.3 0.667 0.667s-0.3 0.667-0.667 0.667zM4.667 20.667h-2.667c-0.367 0-0.667-0.3-0.667-0.667s0.3-0.667 0.667-0.667h2.667c0.367 0 0.667 0.3 0.667 0.667s-0.3 0.667-0.667 0.667zM4.667 18h-2.667c-0.367 0-0.667-0.3-0.667-0.667s0.3-0.667 0.667-0.667h2.667c0.367 0 0.667 0.3 0.667 0.667s-0.3 0.667-0.667 0.667zM4.667 15.333h-2.667c-0.367 0-0.667-0.299-0.667-0.667s0.3-0.667 0.667-0.667h2.667c0.367 0 0.667 0.299 0.667 0.667s-0.3 0.667-0.667 0.667zM4.667 12.667h-2.667c-0.367 0-0.667-0.299-0.667-0.667s0.3-0.667 0.667-0.667h2.667c0.367 0 0.667 0.299 0.667 0.667s-0.3 0.667-0.667 0.667zM4.667 10h-2.667c-0.367 0-0.667-0.299-0.667-0.667s0.3-0.667 0.667-0.667h2.667c0.367 0 0.667 0.299 0.667 0.667s-0.3 0.667-0.667 0.667zM4.667 7.333h-2.667c-0.367 0-0.667-0.299-0.667-0.667s0.3-0.667 0.667-0.667h2.667c0.367 0 0.667 0.299 0.667 0.667s-0.3 0.667-0.667 0.667zM30 26h-2.667c-0.367 0-0.667-0.3-0.667-0.667s0.3-0.667 0.667-0.667h2.667c0.367 0 0.667 0.3 0.667 0.667s-0.3 0.667-0.667 0.667zM30 23.333h-2.667c-0.367 0-0.667-0.3-0.667-0.667s0.3-0.667 0.667-0.667h2.667c0.367 0 0.667 0.3 0.667 0.667s-0.3 0.667-0.667 0.667zM30 20.667h-2.667c-0.367 0-0.667-0.3-0.667-0.667s0.3-0.667 0.667-0.667h2.667c0.367 0 0.667 0.3 0.667 0.667s-0.3 0.667-0.667 0.667zM30 18h-2.667c-0.367 0-0.667-0.3-0.667-0.667s0.3-0.667 0.667-0.667h2.667c0.367 0 0.667 0.3 0.667 0.667s-0.3 0.667-0.667 0.667zM30 15.333h-2.667c-0.367 0-0.667-0.299-0.667-0.667s0.3-0.667 0.667-0.667h2.667c0.367 0 0.667 0.299 0.667 0.667s-0.3 0.667-0.667 0.667zM30 12.667h-2.667c-0.367 0-0.667-0.299-0.667-0.667s0.3-0.667 0.667-0.667h2.667c0.367 0 0.667 0.299 0.667 0.667s-0.3 0.667-0.667 0.667zM30 10h-2.667c-0.367 0-0.667-0.299-0.667-0.667s0.3-0.667 0.667-0.667h2.667c0.367 0 0.667 0.299 0.667 0.667s-0.3 0.667-0.667 0.667zM30 7.333h-2.667c-0.367 0-0.667-0.299-0.667-0.667s0.3-0.667 0.667-0.667h2.667c0.367 0 0.667 0.299 0.667 0.667s-0.3 0.667-0.667 0.667z"></path>
</svg>
