<!-- Generated by IcoMoon.io -->
<svg version="1.1" xmlns="http://www.w3.org/2000/svg" width="32" height="32" viewBox="0 0 32 32">
<title>Email</title>
<path style="fill:#666666;" d="M31.333 26h-30.667c-0.368 0-0.667-0.3-0.667-0.667v-18.667c0-0.367 0.299-0.667 0.667-0.667h30.667c0.367 0 0.667 0.3 0.667 0.667v18.667c0 0.367-0.3 0.667-0.667 0.667zM1.333 24.667h29.333v-17.333h-29.333v17.333zM16 19.445c-0.144 0-0.291-0.047-0.413-0.143l-12-9.476c-0.289-0.231-0.337-0.648-0.111-0.937 0.228-0.288 0.648-0.337 0.937-0.111l12 9.479c0.289 0.229 0.336 0.645 0.111 0.935-0.133 0.168-0.328 0.253-0.524 0.253zM16 19.445c-0.197 0-0.392-0.085-0.524-0.252-0.228-0.291-0.179-0.705 0.111-0.935l12-9.479c0.291-0.227 0.708-0.177 0.937 0.111 0.229 0.291 0.18 0.707-0.109 0.936l-12 9.476c-0.124 0.096-0.269 0.143-0.415 0.143zM4 23.033c-0.231 0-0.456-0.121-0.579-0.333-0.184-0.319-0.073-0.727 0.247-0.913l9.333-5.361c0.32-0.185 0.727-0.075 0.911 0.248 0.184 0.319 0.073 0.727-0.247 0.912l-9.333 5.361c-0.105 0.060-0.219 0.087-0.332 0.087zM28 23.033c-0.112 0-0.227-0.028-0.332-0.087l-9.333-5.361c-0.319-0.187-0.428-0.591-0.247-0.913 0.183-0.32 0.588-0.431 0.911-0.249l9.333 5.361c0.319 0.184 0.428 0.591 0.247 0.912-0.124 0.221-0.348 0.337-0.579 0.337z"></path>
</svg>
