<!-- Generated by IcoMoon.io -->
<svg version="1.1" xmlns="http://www.w3.org/2000/svg" width="35" height="32" viewBox="0 0 35 32">
<title>Eyeglasses-Smiley</title>
<path style="fill:#4a90e2;" d="M17.333 28c-3.504 0-6.824-1.527-9.109-4.188-0.24-0.279-0.208-0.7 0.072-0.94 0.279-0.24 0.699-0.208 0.94 0.072 2.031 2.365 4.981 3.723 8.097 3.723 3.105 0 6.049-1.349 8.079-3.7 0.243-0.279 0.661-0.308 0.94-0.071 0.279 0.24 0.309 0.661 0.071 0.94-2.284 2.645-5.596 4.164-9.089 4.164zM8 21.333c-4.412 0-8-3.588-8-8s3.588-8 8-8 8 3.588 8 8c0 4.412-3.588 8-8 8zM8 6.667c-3.676 0-6.667 2.991-6.667 6.667s2.991 6.667 6.667 6.667 6.667-2.991 6.667-6.667-2.991-6.667-6.667-6.667zM26.667 21.333c-4.412 0-8-3.588-8-8s3.588-8 8-8 8 3.588 8 8c0 4.412-3.588 8-8 8zM26.667 6.667c-3.676 0-6.667 2.991-6.667 6.667s2.991 6.667 6.667 6.667 6.667-2.991 6.667-6.667-2.991-6.667-6.667-6.667zM18.667 14.667h-2.667c-0.368 0-0.667-0.299-0.667-0.667s0.299-0.667 0.667-0.667h2.667c0.367 0 0.667 0.299 0.667 0.667s-0.3 0.667-0.667 0.667zM12 16h-1.333c-0.368 0-0.667-0.299-0.667-0.667s0.299-0.667 0.667-0.667h1.333c0.368 0 0.667 0.299 0.667 0.667s-0.299 0.667-0.667 0.667zM28 16h-1.333c-0.367 0-0.667-0.299-0.667-0.667s0.3-0.667 0.667-0.667h1.333c0.367 0 0.667 0.299 0.667 0.667s-0.3 0.667-0.667 0.667zM29.389 7.192c-0.196 0-0.393-0.087-0.525-0.255-2.803-3.561-7.004-5.604-11.532-5.604-4.524 0-8.725 2.041-11.529 5.6-0.228 0.288-0.645 0.339-0.936 0.111-0.289-0.227-0.339-0.645-0.111-0.936 3.057-3.881 7.641-6.108 12.576-6.108 4.937 0 9.523 2.228 12.58 6.112 0.227 0.289 0.177 0.708-0.112 0.936-0.12 0.096-0.267 0.144-0.411 0.144zM17.333 32c-8.187 0-15.025-6.131-15.907-14.255-0.040-0.364 0.224-0.695 0.591-0.736 0.357-0.037 0.695 0.224 0.735 0.591 0.807 7.449 7.076 13.067 14.581 13.067 7.503 0 13.771-5.616 14.581-13.064 0.037-0.365 0.361-0.632 0.735-0.591 0.364 0.040 0.632 0.368 0.591 0.736-0.883 8.124-7.721 14.252-15.907 14.252z"></path>
</svg>
