<!-- Generated by IcoMoon.io -->
<svg version="1.1" xmlns="http://www.w3.org/2000/svg" width="32" height="32" viewBox="0 0 32 32">
<title>File-Refresh</title>
<path style="fill:#666666;" d="M22.713 31.999c-3.285 0-5.957-2.689-5.957-5.992 0-3.309 2.665-6.007 5.943-6.007h0.635c0.368 0 0.667 0.301 0.667 0.667 0 0.368-0.299 0.667-0.667 0.667h-0.636c-2.541 0-4.609 2.096-4.609 4.673 0 2.569 2.073 4.659 4.623 4.659 2.548 0 4.623-2.077 4.623-4.631v-0.701c0-0.367 0.299-0.667 0.667-0.667 0.367 0 0.667 0.3 0.667 0.667v0.7c0 3.289-2.669 5.965-5.953 5.965zM21.011 25.751c-0.128 0-0.256-0.036-0.371-0.112-0.305-0.205-0.388-0.621-0.184-0.925l2.656-3.96-3.156-3.149c-0.26-0.26-0.26-0.684 0-0.943 0.26-0.261 0.683-0.26 0.943-0.001l3.544 3.536c0.224 0.224 0.259 0.579 0.084 0.843l-2.961 4.416c-0.131 0.191-0.341 0.296-0.555 0.296zM15.333 32h-11.333c-0.368 0-0.667-0.3-0.667-0.667v-23.224c0-0.164 0.060-0.321 0.169-0.444l6.667-7.443c0.128-0.141 0.307-0.223 0.497-0.223h16c0.368 0 0.667 0.299 0.667 0.667v16.667c0 0.367-0.299 0.667-0.667 0.667-0.367 0-0.667-0.3-0.667-0.667v-16h-15.033l-6.3 7.031v22.303h10.667c0.368 0 0.667 0.3 0.667 0.667s-0.299 0.667-0.667 0.667zM10.667 9.333h-6c-0.367 0-0.667-0.299-0.667-0.667s0.3-0.667 0.667-0.667h5.333v-6.667c0-0.368 0.299-0.667 0.667-0.667s0.667 0.299 0.667 0.667v7.333c0 0.368-0.299 0.667-0.667 0.667z"></path>
</svg>
