<!-- Generated by IcoMoon.io -->
<svg version="1.1" xmlns="http://www.w3.org/2000/svg" width="32" height="32" viewBox="0 0 32 32">
<title>File-Edit</title>
<path style="fill:#666666;" d="M17.869 29.643c-0.172 0-0.344-0.071-0.472-0.195-0.188-0.188-0.247-0.469-0.148-0.716l1.841-4.669c0.033-0.084 0.084-0.163 0.151-0.227l5.109-5.109c0.257-0.26 0.683-0.26 0.943 0l2.828 2.828c0.125 0.125 0.195 0.295 0.195 0.472 0 0.18-0.071 0.349-0.195 0.472l-5.109 5.109c-0.065 0.064-0.14 0.116-0.227 0.149l-4.672 1.841c-0.077 0.029-0.16 0.044-0.244 0.044zM20.284 24.681l-1.229 3.113 3.115-1.228 4.539-4.54-1.887-1.885-4.537 4.54zM27.651 22.969l-0.943-0.943 1.36-1.359c0.419-0.42 0.235-1.428-0.112-1.776-0.347-0.344-1.355-0.529-1.775-0.111l-1.361 1.36-0.943-0.943 1.361-1.36c1.028-1.028 2.899-0.648 3.659 0.111 0.76 0.761 1.139 2.635 0.112 3.661l-1.359 1.359zM22.121 26.88l-2.097-2.096 0.943-0.943 2.097 2.096-0.943 0.943zM24.996 24.088l-2.143-2.134 0.941-0.945 2.143 2.134-0.941 0.945zM15.696 32h-12.667c-0.368 0-0.667-0.3-0.667-0.667v-23.224c0-0.164 0.060-0.321 0.169-0.444l6.667-7.443c0.128-0.141 0.307-0.223 0.497-0.223h16c0.368 0 0.667 0.299 0.667 0.667v14c0 0.368-0.299 0.667-0.667 0.667-0.367 0-0.667-0.299-0.667-0.667v-13.333h-15.033l-6.3 7.031v22.303h12c0.368 0 0.667 0.3 0.667 0.667s-0.299 0.667-0.667 0.667zM9.696 9.333h-6c-0.368 0-0.667-0.299-0.667-0.667s0.3-0.667 0.667-0.667h5.333v-6.667c0-0.368 0.299-0.667 0.667-0.667s0.667 0.299 0.667 0.667v7.333c0 0.368-0.299 0.667-0.667 0.667z"></path>
</svg>
