<!-- Generated by IcoMoon.io -->
<svg version="1.1" xmlns="http://www.w3.org/2000/svg" width="32" height="32" viewBox="0 0 32 32">
<title>Hour</title>
<path style="fill:#4a90e2;" d="M16.001 31.64c-7.849 0-14.235-6.385-14.235-14.235 0-7.619 5.959-13.865 13.564-14.219 0.356-0.055 0.681 0.268 0.696 0.636 0.019 0.367-0.268 0.68-0.637 0.695-6.893 0.32-12.293 5.979-12.293 12.888 0 7.115 5.788 12.901 12.901 12.901s12.901-5.787 12.901-12.901c0-3.705-1.599-7.241-4.391-9.693-0.276-0.247-0.305-0.665-0.061-0.941 0.249-0.276 0.665-0.305 0.941-0.061 3.081 2.704 4.844 6.604 4.844 10.693 0.004 7.852-6.381 14.237-14.231 14.237zM8.667 25.576c-0.171 0-0.341-0.065-0.472-0.193-0.257-0.26-0.257-0.685 0-0.943l7.336-7.333c0.259-0.26 0.684-0.26 0.943 0 0.259 0.257 0.259 0.683 0 0.943l-7.336 7.333c-0.129 0.128-0.3 0.193-0.471 0.193zM20.472 22.716c-0.169 0-0.341-0.065-0.472-0.195l-4.472-4.472c-0.26-0.26-0.26-0.685 0-0.943 0.257-0.26 0.683-0.26 0.943 0l4.472 4.472c0.26 0.257 0.26 0.683 0 0.943-0.129 0.129-0.299 0.195-0.471 0.195zM13.336 8.329c-0.129 0-0.256-0.036-0.371-0.113-0.305-0.205-0.388-0.62-0.183-0.924l2.295-3.417-3.443-2.296c-0.305-0.203-0.391-0.62-0.187-0.923 0.204-0.305 0.62-0.388 0.923-0.187l4 2.667c0.145 0.099 0.251 0.251 0.284 0.423 0.033 0.175-0.003 0.356-0.1 0.501l-2.665 3.972c-0.131 0.193-0.34 0.297-0.553 0.297z"></path>
</svg>
