<!-- Generated by IcoMoon.io -->
<svg version="1.1" xmlns="http://www.w3.org/2000/svg" width="32" height="32" viewBox="0 0 32 32">
<title>Newspaper</title>
<path style="fill:#666666;" d="M4 32c-2.205 0-4-1.795-4-4v-21.333c0-1.469 1.196-2.667 2.667-2.667h4.667c0.368 0 0.667 0.299 0.667 0.667v23.333c0 2.205-1.795 4-4 4zM2.667 5.333c-0.735 0-1.333 0.597-1.333 1.333v21.333c0 1.472 1.196 2.667 2.667 2.667s2.667-1.195 2.667-2.667v-22.667h-4zM17.333 10.667h-6.667c-0.368 0-0.667-0.299-0.667-0.667s0.299-0.667 0.667-0.667h6.667c0.367 0 0.667 0.299 0.667 0.667s-0.3 0.667-0.667 0.667zM17.333 6.667h-6.667c-0.368 0-0.667-0.299-0.667-0.667s0.299-0.667 0.667-0.667h6.667c0.367 0 0.667 0.299 0.667 0.667s-0.3 0.667-0.667 0.667zM28 6.667h-6.667c-0.367 0-0.667-0.299-0.667-0.667s0.3-0.667 0.667-0.667h6.667c0.367 0 0.667 0.299 0.667 0.667s-0.3 0.667-0.667 0.667zM17.333 14.667h-6.667c-0.368 0-0.667-0.299-0.667-0.667s0.299-0.667 0.667-0.667h6.667c0.367 0 0.667 0.299 0.667 0.667s-0.3 0.667-0.667 0.667zM17.333 18.667h-6.667c-0.368 0-0.667-0.3-0.667-0.667s0.299-0.667 0.667-0.667h6.667c0.367 0 0.667 0.3 0.667 0.667s-0.3 0.667-0.667 0.667zM28.667 18.667h-8c-0.367 0-0.667-0.3-0.667-0.667v-8c0-0.368 0.3-0.667 0.667-0.667h8c0.367 0 0.667 0.299 0.667 0.667v8c0 0.367-0.3 0.667-0.667 0.667zM21.333 17.333h6.667v-6.667h-6.667v6.667zM17.333 22.667h-6.667c-0.368 0-0.667-0.3-0.667-0.667s0.299-0.667 0.667-0.667h6.667c0.367 0 0.667 0.3 0.667 0.667s-0.3 0.667-0.667 0.667zM28 22.667h-6.667c-0.367 0-0.667-0.3-0.667-0.667s0.3-0.667 0.667-0.667h6.667c0.367 0 0.667 0.3 0.667 0.667s-0.3 0.667-0.667 0.667zM17.333 26.667h-6.667c-0.368 0-0.667-0.3-0.667-0.667s0.299-0.667 0.667-0.667h6.667c0.367 0 0.667 0.3 0.667 0.667s-0.3 0.667-0.667 0.667zM28 26.667h-6.667c-0.367 0-0.667-0.3-0.667-0.667s0.3-0.667 0.667-0.667h6.667c0.367 0 0.667 0.3 0.667 0.667s-0.3 0.667-0.667 0.667zM29.333 32h-25.333c-0.368 0-0.667-0.3-0.667-0.667s0.299-0.667 0.667-0.667h25.333c0.735 0 1.333-0.597 1.333-1.333v-26.667c0-0.736-0.599-1.333-1.333-1.333h-20c-0.735 0-1.333 0.597-1.333 1.333v25.333c0 0.367-0.299 0.667-0.667 0.667s-0.667-0.3-0.667-0.667v-25.333c0-1.469 1.196-2.667 2.667-2.667h20c1.472 0 2.667 1.197 2.667 2.667v26.667c0 1.472-1.195 2.667-2.667 2.667z"></path>
</svg>
