<!-- Generated by IcoMoon.io -->
<svg version="1.1" xmlns="http://www.w3.org/2000/svg" width="32" height="32" viewBox="0 0 32 32">
<title>Notepad</title>
<path style="fill:#666666;" d="M24.667 32h-22.667c-0.368 0-0.667-0.3-0.667-0.667v-25.333c0-0.368 0.299-0.667 0.667-0.667h22.667c0.367 0 0.667 0.299 0.667 0.667v25.333c0 0.367-0.3 0.667-0.667 0.667zM2.667 30.667h21.333v-24h-21.333v24zM28.667 30.667c-0.287 0-0.541-0.184-0.633-0.456l-1.333-4c-0.021-0.068-0.033-0.139-0.033-0.211v-21.333c0-0.368 0.3-0.667 0.667-0.667h2.667c0.367 0 0.667 0.299 0.667 0.667v21.333c0 0.072-0.012 0.143-0.033 0.211l-1.333 4c-0.092 0.272-0.347 0.456-0.633 0.456zM28 25.892l0.667 2 0.667-2v-20.559h-1.333v20.559zM29.333 9.333h-1.333c-0.367 0-0.667-0.299-0.667-0.667s0.3-0.667 0.667-0.667h1.333c0.367 0 0.667 0.299 0.667 0.667s-0.3 0.667-0.667 0.667zM29.333 25.333h-1.333c-0.367 0-0.667-0.3-0.667-0.667s0.3-0.667 0.667-0.667h1.333c0.367 0 0.667 0.3 0.667 0.667s-0.3 0.667-0.667 0.667zM19.333 6c-0.367 0-0.667-0.299-0.667-0.667v-1.333h-2c-0.368 0-0.667-0.299-0.667-0.667 0-1.103-0.897-2-2-2h-1.333c-1.103 0-2 0.897-2 2 0 0.368-0.299 0.667-0.667 0.667h-2v1.333c0 0.368-0.299 0.667-0.667 0.667s-0.667-0.299-0.667-0.667v-2c0-0.368 0.299-0.667 0.667-0.667h2.067c0.309-1.52 1.656-2.667 3.267-2.667h1.333c1.611 0 2.956 1.147 3.267 2.667h2.068c0.368 0 0.667 0.299 0.667 0.667v2c-0.001 0.368-0.301 0.667-0.668 0.667zM22 29.333h-17.333c-0.368 0-0.667-0.3-0.667-0.667v-20c0-0.368 0.299-0.667 0.667-0.667h17.333c0.367 0 0.667 0.299 0.667 0.667v20c0 0.367-0.3 0.667-0.667 0.667zM5.333 28h16v-18.667h-16v18.667zM17.333 13.333h-8c-0.368 0-0.667-0.299-0.667-0.667s0.299-0.667 0.667-0.667h8c0.367 0 0.667 0.299 0.667 0.667s-0.3 0.667-0.667 0.667zM17.333 17.333h-8c-0.368 0-0.667-0.3-0.667-0.667 0-0.368 0.299-0.667 0.667-0.667h8c0.367 0 0.667 0.299 0.667 0.667 0 0.367-0.3 0.667-0.667 0.667zM17.333 21.333h-8c-0.368 0-0.667-0.3-0.667-0.667s0.299-0.667 0.667-0.667h8c0.367 0 0.667 0.3 0.667 0.667s-0.3 0.667-0.667 0.667z"></path>
</svg>
