<!-- Generated by IcoMoon.io -->
<svg version="1.1" xmlns="http://www.w3.org/2000/svg" width="32" height="32" viewBox="0 0 32 32">
<title>Project</title>
<path style="fill:#666666;" d="M26.667 32h-21.333c-0.368 0-0.667-0.3-0.667-0.667v-30.667c0-0.367 0.299-0.667 0.667-0.667h21.333c0.367 0 0.667 0.3 0.667 0.667v30.667c0 0.367-0.3 0.667-0.667 0.667zM6 30.667h20v-29.333h-20v29.333zM21.333 17.333h-10.667c-0.368 0-0.667-0.3-0.667-0.667v-10.667c0-0.367 0.299-0.667 0.667-0.667h10.667c0.367 0 0.667 0.3 0.667 0.667v10.667c0 0.367-0.3 0.667-0.667 0.667zM11.333 16h9.333v-9.333h-9.333v9.333zM20.667 21.333h-9.333c-0.368 0-0.667-0.3-0.667-0.667s0.299-0.667 0.667-0.667h9.333c0.367 0 0.667 0.3 0.667 0.667s-0.3 0.667-0.667 0.667zM20.667 24h-9.333c-0.368 0-0.667-0.3-0.667-0.667s0.299-0.667 0.667-0.667h9.333c0.367 0 0.667 0.3 0.667 0.667s-0.3 0.667-0.667 0.667z"></path>
</svg>
