<!-- Generated by IcoMoon.io -->
<svg version="1.1" xmlns="http://www.w3.org/2000/svg" width="32" height="32" viewBox="0 0 32 32">
<title>Security-Check</title>
<path style="fill:#666666;" d="M19.003 32h-10.667c-3.676 0-6.667-2.991-6.667-6.667v-10c0-0.367 0.3-0.667 0.667-0.667h22c0.367 0 0.667 0.3 0.667 0.667s-0.3 0.667-0.667 0.667h-21.333v9.333c0 2.941 2.392 5.333 5.333 5.333h10.667c2.94 0 5.333-2.392 5.333-5.333v-4c0-0.367 0.3-0.667 0.667-0.667s0.667 0.3 0.667 0.667v4c0 3.676-2.992 6.667-6.667 6.667zM23.669 15.333c-0.367 0-0.667-0.3-0.667-0.667v-5.333c0-4.636-3.643-8-8.667-8h-1.333c-5.024 0-8.667 3.364-8.667 8v5.333c0 0.367-0.3 0.667-0.667 0.667s-0.667-0.3-0.667-0.667v-5.333c0-5.32 4.3-9.333 10-9.333h1.333c5.701 0 10 4.013 10 9.333v5.333c0 0.367-0.3 0.667-0.667 0.667zM13.668 27.225c-0.171 0-0.341-0.065-0.472-0.195l-3.917-3.893c-0.259-0.257-0.259-0.683-0.003-0.943s0.681-0.26 0.943-0.003l3.508 3.484 15.539-11.631c0.295-0.22 0.711-0.16 0.932 0.136 0.221 0.297 0.161 0.711-0.136 0.932l-16 11.975c-0.113 0.093-0.255 0.137-0.393 0.137z"></path>
</svg>
