<!-- Generated by IcoMoon.io -->
<svg version="1.1" xmlns="http://www.w3.org/2000/svg" width="32" height="32" viewBox="0 0 32 32">
<title>Speach-BubbleDialog</title>
<path style="fill:#666666;" d="M2.849 18.924c-0.145 0-0.292-0.047-0.412-0.141-0.225-0.177-0.312-0.477-0.215-0.751l1.308-3.623h-2.864c-0.368 0-0.667-0.3-0.667-0.667v-13.333c0-0.367 0.299-0.667 0.667-0.667h21.333c0.367 0 0.667 0.3 0.667 0.667v13.333c0 0.367-0.3 0.667-0.667 0.667h-12.111l-6.672 4.408c-0.112 0.072-0.24 0.107-0.368 0.107zM1.333 13.076h3.147c0.217 0 0.42 0.107 0.545 0.284s0.155 0.408 0.081 0.609l-0.948 2.629 5.161-3.411c0.109-0.075 0.236-0.112 0.367-0.112h11.647v-12h-20v12zM29.151 32.257c-0.128 0-0.256-0.035-0.367-0.109l-6.672-4.409h-10.779c-0.368 0-0.667-0.3-0.667-0.667v-12.667c0-0.367 0.299-0.667 0.667-0.667s0.667 0.3 0.667 0.667v12h10.312c0.131 0 0.257 0.036 0.365 0.111l5.163 3.411-0.948-2.628c-0.073-0.203-0.044-0.432 0.081-0.609 0.127-0.179 0.328-0.284 0.547-0.284h3.147v-13.333h-8c-0.367 0-0.667-0.3-0.667-0.667s0.3-0.667 0.667-0.667h8.667c0.367 0 0.667 0.3 0.667 0.667v14.667c0 0.367-0.3 0.667-0.667 0.667h-2.864l1.308 3.624c0.097 0.271 0.011 0.575-0.215 0.751-0.12 0.097-0.265 0.144-0.412 0.144zM18.667 5.076h-14.667c-0.368 0-0.667-0.299-0.667-0.667 0-0.365 0.299-0.667 0.667-0.667h14.667c0.367 0 0.667 0.301 0.667 0.667 0 0.368-0.3 0.667-0.667 0.667zM18.667 7.743h-14.667c-0.368 0-0.667-0.299-0.667-0.667 0-0.365 0.299-0.667 0.667-0.667h14.667c0.367 0 0.667 0.301 0.667 0.667 0 0.368-0.3 0.667-0.667 0.667zM12 10.409h-8c-0.368 0-0.667-0.299-0.667-0.667 0-0.365 0.299-0.667 0.667-0.667h8c0.368 0 0.667 0.301 0.667 0.667 0 0.368-0.299 0.667-0.667 0.667zM28 18.409h-13.333c-0.368 0-0.667-0.299-0.667-0.667 0-0.365 0.299-0.667 0.667-0.667h13.333c0.367 0 0.667 0.301 0.667 0.667 0 0.368-0.3 0.667-0.667 0.667zM28 21.076h-13.333c-0.368 0-0.667-0.299-0.667-0.667 0-0.365 0.299-0.667 0.667-0.667h13.333c0.367 0 0.667 0.301 0.667 0.667 0 0.368-0.3 0.667-0.667 0.667zM22.667 23.743h-8c-0.368 0-0.667-0.299-0.667-0.667 0-0.365 0.299-0.667 0.667-0.667h8c0.367 0 0.667 0.301 0.667 0.667 0 0.368-0.3 0.667-0.667 0.667z"></path>
</svg>
