<!-- Generated by IcoMoon.io -->
<svg version="1.1" xmlns="http://www.w3.org/2000/svg" width="32" height="32" viewBox="0 0 32 32">
<title>Spell-Check</title>
<path style="fill:#666666;" d="M24.22 32h-20c-0.368 0-0.667-0.299-0.667-0.667v-24.583c0-0.161 0.059-0.317 0.165-0.44l5.333-6.084c0.127-0.145 0.309-0.227 0.501-0.227h14.667c0.367 0 0.667 0.299 0.667 0.667v8.667h-1.333v-8h-13.697l-4.969 5.667v23.667h18.667v-9.333h1.333v10c0 0.368-0.3 0.667-0.667 0.667zM9.553 8h-4.667c-0.368 0-0.667-0.299-0.667-0.667s0.299-0.667 0.667-0.667h4v-5.333c0-0.368 0.299-0.667 0.667-0.667s0.667 0.299 0.667 0.667v6c0 0.368-0.299 0.667-0.667 0.667zM12.887 12h-5.333c-0.368 0-0.667-0.299-0.667-0.667s0.299-0.667 0.667-0.667h5.333c0.368 0 0.667 0.299 0.667 0.667s-0.299 0.667-0.667 0.667zM10.22 10.667h5.333v1.333h-5.333v-1.333zM12.887 16h-5.333c-0.368 0-0.667-0.299-0.667-0.667s0.299-0.667 0.667-0.667h5.333c0.368 0 0.667 0.299 0.667 0.667s-0.299 0.667-0.667 0.667zM10.22 14.667h5.333v1.333h-5.333v-1.333zM16.887 20h-9.333c-0.368 0-0.667-0.299-0.667-0.667 0-0.367 0.299-0.667 0.667-0.667h9.333c0.368 0 0.667 0.3 0.667 0.667 0 0.368-0.299 0.667-0.667 0.667zM27.701 31.304c-0.265 0-0.519-0.161-0.62-0.423l-3.967-10.143c-0.136-0.344 0.035-0.729 0.379-0.864 0.344-0.133 0.729 0.036 0.861 0.377l3.967 10.143c0.135 0.343-0.035 0.729-0.379 0.864-0.077 0.031-0.159 0.045-0.241 0.045zM21.427 21.599c-2.912 0-5.477-1.752-6.537-4.465-0.683-1.747-0.644-3.655 0.108-5.372s2.128-3.039 3.875-3.721c0.82-0.32 1.68-0.483 2.555-0.483 2.912 0 5.477 1.751 6.537 4.464 1.409 3.605-0.38 7.684-3.984 9.093-0.819 0.32-1.676 0.484-2.553 0.484zM21.427 8.891c-0.708 0-1.404 0.132-2.071 0.392-1.415 0.552-2.528 1.623-3.139 3.015-0.609 1.391-0.64 2.936-0.087 4.349 0.859 2.196 2.939 3.617 5.296 3.617 0.708 0 1.404-0.132 2.069-0.392 2.92-1.14 4.365-4.445 3.227-7.365-0.86-2.197-2.936-3.616-5.296-3.616zM24.22 17.333h-5.333c-0.368 0-0.667-0.299-0.667-0.667v-4c0-0.368 0.299-0.667 0.667-0.667h5.333c0.367 0 0.667 0.299 0.667 0.667v4c0 0.368-0.3 0.667-0.667 0.667zM19.553 16h4v-2.667h-4v2.667z"></path>
</svg>
