<!-- Generated by IcoMoon.io -->
<svg version="1.1" xmlns="http://www.w3.org/2000/svg" width="36" height="36" viewBox="0 0 32 32">
<title>Tablet</title>
<path style="fill:#666666;" d="M26.667 32h-21.333c-1.471 0-2.667-1.195-2.667-2.667v-26.667c0-1.472 1.196-2.667 2.667-2.667h21.333c1.472 0 2.667 1.195 2.667 2.667v26.667c0 1.472-1.195 2.667-2.667 2.667zM5.333 1.333c-0.735 0-1.333 0.599-1.333 1.333v26.667c0 0.735 0.599 1.333 1.333 1.333h21.333c0.735 0 1.333-0.599 1.333-1.333v-26.667c0-0.735-0.599-1.333-1.333-1.333h-21.333zM17.333 29.333h-2.667c-0.368 0-0.667-0.3-0.667-0.667s0.299-0.667 0.667-0.667h2.667c0.367 0 0.667 0.3 0.667 0.667s-0.3 0.667-0.667 0.667zM26 26.667h-20c-0.368 0-0.667-0.3-0.667-0.667v-22.667c0-0.368 0.299-0.667 0.667-0.667h20c0.367 0 0.667 0.299 0.667 0.667v22.667c0 0.367-0.3 0.667-0.667 0.667zM6.667 25.333h18.667v-21.333h-18.667v21.333zM22.667 8h-13.333c-0.368 0-0.667-0.299-0.667-0.667s0.299-0.667 0.667-0.667h13.333c0.367 0 0.667 0.299 0.667 0.667s-0.3 0.667-0.667 0.667zM22.667 12h-13.333c-0.368 0-0.667-0.299-0.667-0.667s0.299-0.667 0.667-0.667h13.333c0.367 0 0.667 0.299 0.667 0.667s-0.3 0.667-0.667 0.667zM22.667 16h-13.333c-0.368 0-0.667-0.299-0.667-0.667s0.299-0.667 0.667-0.667h13.333c0.367 0 0.667 0.299 0.667 0.667s-0.3 0.667-0.667 0.667zM16 20h-6.667c-0.368 0-0.667-0.3-0.667-0.667s0.299-0.667 0.667-0.667h6.667c0.368 0 0.667 0.3 0.667 0.667s-0.299 0.667-0.667 0.667z"></path>
</svg>
